<svg width="24" height="24" viewBox="0 0 1000 1000" xmlns="http://www.w3.org/2000/svg">
  <path fill-rule="evenodd" clip-rule="evenodd"
    d="M1000 500C1000 776.142 776.142 1000 500 1000C223.858 1000 0 776.142 0 500C0 223.858 223.858 0 500 0C776.142 0 1000 223.858 1000 500ZM517.917 369.122C469.285 389.35 372.089 431.217 226.328 494.722C202.659 504.135 190.26 513.343 189.132 522.346C187.224 537.563 206.279 543.555 232.228 551.714C235.757 552.824 239.414 553.974 243.164 555.192C268.693 563.491 303.034 573.199 320.887 573.585C337.081 573.935 355.155 567.259 375.11 553.556C511.298 461.625 581.599 415.159 586.012 414.157C589.126 413.45 593.441 412.562 596.365 415.16C599.288 417.759 599.001 422.68 598.691 424C596.804 432.048 522.005 501.588 483.296 537.574C471.229 548.793 462.669 556.751 460.919 558.569C457 562.64 453.005 566.491 449.165 570.192C425.448 593.056 407.662 610.201 450.15 638.2C470.568 651.655 486.906 662.781 503.206 673.881C521.007 686.004 538.761 698.095 561.733 713.153C567.586 716.99 573.176 720.975 578.62 724.856C599.336 739.624 617.947 752.893 640.941 750.777C654.301 749.548 668.102 736.984 675.111 699.515C691.675 610.965 724.234 419.102 731.759 340.041C732.418 333.114 731.589 324.249 730.923 320.357C730.257 316.466 728.865 310.921 723.806 306.817C717.816 301.956 708.568 300.931 704.431 301.004C685.625 301.335 656.773 311.367 517.917 369.122Z" />
</svg>