<svg xmlns="http://www.w3.org/2000/svg" width="1024" height="1024">
  <defs>
    <linearGradient id="a" x1="0%" x2="100%" y1="50%" y2="50%">
      <stop offset="0%" stop-color="#00ECFF" />
      <stop offset="100%" stop-color="#0AF" />
    </linearGradient>
    <linearGradient id="b" x1="100%" x2="0%" y1="50%" y2="50%">
      <stop offset="0%" stop-color="#0987FC" />
      <stop offset="100%" stop-color="#00BCFF" />
    </linearGradient>
    <linearGradient id="c" x1="0%" x2="100%" y1="50%" y2="50%">
      <stop offset="0%" stop-color="#078EFD" />
      <stop offset="100%" stop-color="#0F5CF8" />
    </linearGradient>
    <linearGradient id="d" x1="0%" x2="100%" y1="0%" y2="0%">
      <stop offset="0%" stop-color="#FFF" stop-opacity=".35" />
      <stop offset="4.688%" stop-color="#FFF" stop-opacity="0" />
      <stop offset="36.458%" stop-color="#FFF" stop-opacity="0" />
      <stop offset="45.833%" stop-color="#FFF" stop-opacity=".5" />
      <stop offset="50.521%" stop-color="#FFF" stop-opacity=".5" />
      <stop offset="73.438%" stop-opacity=".35" />
    </linearGradient>
    <linearGradient id="e" x1="50%" x2="0%" y1="80%" y2="50%">
      <stop offset="0%" stop-color="#1762E1" />
      <stop offset="100%" stop-color="#1AB8F1" />
    </linearGradient>
  </defs>
  <g fill="none" fill-rule="nonzero">
    <path fill="url(#a)"
      d="M7.79 646.653c11.559 26.523 41.987 49.344 102.843 94.984l135.222 101.415c60.856 45.643 91.286 68.464 126.214 76.808 30.724 7.34 63.75 7.048 94.34-.828 34.778-8.955 64.803-32.305 124.846-79.008L724.68 736.252c60.047-46.703 90.068-70.053 101.16-96.773 6.037-14.545 8.255-29.747 6.658-44.753l-.079-88.072a6.039 6.039 0 0 0-6.09-6.03l-65.94.566c-11.093-8.553-23.718-18.02-38.024-28.751L587.144 371.024c-60.857-45.64-91.284-68.461-126.215-76.806-30.724-7.34-63.75-7.05-94.34.829-34.778 8.955-64.803 32.305-124.847 79.007l-133.423 103.77c-14.048 10.928-26.453 20.575-37.356 29.287l-64.954.558a6.037 6.037 0 0 0-5.985 6.038l.007 93.852a89.07 89.07 0 0 0 0 4.714v1.013c0 .32.025.634.074.942C.637 625.2 3.2 636.12 7.79 646.653Z"
      transform="translate(96 49)" />
    <path fill="url(#b)"
      d="M7.79 550.912c11.559 26.52 41.987 49.341 102.843 94.984L245.855 747.31c60.856 45.64 91.286 68.461 126.214 76.806 30.724 7.34 63.75 7.05 94.34-.83 34.778-8.954 64.803-32.304 124.846-79.006L724.68 640.508c60.047-46.7 90.068-70.052 101.16-96.772 6.037-14.543 8.255-29.745 6.658-44.75l-.079-88.073a6.04 6.04 0 0 0-6.09-6.033l-65.94.566c-11.093-8.55-23.718-18.02-38.024-28.748L587.144 275.283c-60.857-45.643-91.284-68.463-126.215-76.807-30.724-7.34-63.75-7.05-94.34.827-34.778 8.956-64.803 32.306-124.847 79.007L108.319 382.083c-14.048 10.925-26.453 20.575-37.356 29.285l-64.954.56a6.035 6.035 0 0 0-5.985 6.035l.007 93.855a89.07 89.07 0 0 0 0 4.714v1.01c0 .321.025.637.074.944C.637 529.46 3.2 540.38 7.79 550.912Z"
      transform="translate(96 49)" />
    <path fill="url(#c)"
      d="M7.79 454.321c11.559 26.523 41.987 49.342 102.843 94.984L245.855 650.72c60.856 45.643 91.283 68.461 126.214 76.806 30.724 7.34 63.75 7.05 94.34-.826 34.778-8.955 64.803-32.308 124.846-79.008L724.68 543.92c60.047-46.703 90.068-70.053 101.16-96.772 6.037-14.545 8.255-29.748 6.658-44.754l-.079-88.072a6.041 6.041 0 0 0-6.09-6.032l-65.94.568c-11.09-8.552-23.715-18.023-38.024-28.75L587.144 178.69c-60.857-45.641-91.284-68.462-126.215-76.806-30.724-7.34-63.75-7.05-94.34.828-34.778 8.955-64.803 32.306-124.847 79.008L108.319 285.492c-14.048 10.925-26.453 20.575-37.356 29.288l-64.954.557a6.036 6.036 0 0 0-5.985 6.035l.007 93.855a89.07 89.07 0 0 0 0 4.714v1.01c0 .321.025.637.074.945.532 10.972 3.095 21.892 7.686 32.425Z"
      transform="translate(96 49)" />
    <path fill="url(#d)" fill-opacity=".7"
      d="m.032 415.224-.007-92.14c-.296-12.592 2.08-25.23 7.134-37.405 11.091-26.719 41.114-50.07 101.16-96.772L241.742 85.136C301.79 38.434 331.811 15.083 366.59 6.128c30.593-7.878 63.616-8.167 94.34-.828 34.931 8.344 65.358 31.165 126.215 76.806l135.221 101.416c60.857 45.641 91.286 68.462 102.843 94.983 6.598 15.137 9.008 31.074 7.222 46.821l.068 77.068a89.156 89.156 0 0 1-.068 19.517l.068 77.072a89.108 89.108 0 0 1-.068 19.511l.068 77.077c1.597 15.005-.62 30.205-6.658 44.75-11.092 26.72-41.113 50.07-101.16 96.773l-133.422 103.77c-60.046 46.702-90.068 70.055-124.846 79.01-30.593 7.876-63.616 8.165-94.343.825-34.928-8.344-65.358-31.163-126.213-76.805L110.633 742.479C49.777 696.836 19.35 674.018 7.791 647.495 3.154 636.854.585 625.818.09 614.733a6.149 6.149 0 0 1-.051-.79v-.597a89.064 89.064 0 0 1 0-5.177l-.007-91.656a89.095 89.095 0 0 1 0-4.703l-.007-92.137a99.979 99.979 0 0 1 .007-4.449Z"
      style="mix-blend-mode:multiply" transform="translate(96 49)" />
    <path fill="url(#e)"
      d="M110.633 452.72C49.777 407.08 19.35 384.258 7.791 357.735c-10.167-23.329-10.388-48.552-.632-72.057 11.091-26.719 41.114-50.07 101.16-96.772L241.742 85.136C301.79 38.434 331.811 15.083 366.59 6.128c30.593-7.878 63.616-8.167 94.34-.828 34.931 8.344 65.358 31.165 126.215 76.806l135.221 101.416c60.857 45.641 91.286 68.462 102.843 94.983 10.168 23.329 10.389 48.552.632 72.057-11.092 26.72-41.113 50.07-101.16 96.772L591.258 551.107c-60.046 46.7-90.068 70.052-124.846 79.007-30.593 7.876-63.616 8.166-94.343.826-34.928-8.342-65.358-31.163-126.213-76.805L110.633 452.719Z"
      transform="translate(96 49)" />
  </g>
</svg>